<?xml version="1.0" encoding="iso-8859-1"?>
<!-- Generator: Adobe Illustrator 26.1.0, SVG Export Plug-In . SVG Version: 6.00 Build 0)  -->
<svg version="1.1" id="Tone" xmlns="http://www.w3.org/2000/svg" xmlns:xlink="http://www.w3.org/1999/xlink" x="0px" y="0px"
	 viewBox="0 0 50 50" style="enable-background:new 0 0 50 50;" xml:space="preserve">
<g id="Line">
</g>
<g>
	<path fill='#00796B' d="M39,32V20c0-0.553-0.447-1-1-1H12c-0.553,0-1,0.447-1,1v12c0,0.553,0.447,1,1,1h16.044c-0.504,1.057-1.3,2.483-1.901,3.485
		c-0.201,0.335-0.188,0.755,0.031,1.077C26.361,37.839,26.673,38,27,38c0.055,0,0.109-0.005,0.164-0.014
		c6.187-1.031,11.248-5.035,11.461-5.205C38.862,32.591,39,32.304,39,32z M18.5,29c-1.402,0-2.5-1.317-2.5-3s1.098-3,2.5-3
		s2.5,1.317,2.5,3S19.902,29,18.5,29z M31.5,29c-1.402,0-2.5-1.317-2.5-3s1.098-3,2.5-3s2.5,1.317,2.5,3S32.902,29,31.5,29z"/>
	<path fill='#00796B' d="M50.024,29c0-3.763-1.74-7.011-4.251-8.549c-0.004-0.075,0.004-0.15-0.018-0.225C43.152,11.113,34.423,4.5,25,4.5
		c-9.796,0-19.057,7.486-21.083,17.043C3.911,21.572,3.92,21.6,3.916,21.629C1.562,23.234-0.043,26.383-0.043,30
		c0,5.238,3.364,9.5,7.5,9.5c0.328,0,0.635-0.161,0.821-0.43c0.187-0.27,0.229-0.613,0.115-0.921
		c-0.015-0.038-1.437-3.905-1.437-8.649c0-4.994,1.353-7.477,1.37-7.507c0.175-0.309,0.173-0.687-0.005-0.994
		C8.144,20.69,7.813,20.5,7.457,20.5c-0.422,0-0.834,0.055-1.238,0.141C8.587,12.614,16.57,6.5,25,6.5
		c7.992,0,15.688,5.544,18.431,13.076c-0.298-0.046-0.599-0.076-0.907-0.076c-0.354,0-0.682,0.19-0.861,0.497
		c-0.18,0.306-0.182,0.687-0.009,0.996c0.014,0.024,1.37,2.507,1.37,7.507c0,3.94-0.979,7.268-1.319,8.307
		c-1.147,0.934-2.89,2.228-4.928,3.348c-0.761-0.849-1.937-1.283-3.126-1.006l-1.783,0.411c-0.843,0.193-1.56,0.703-2.019,1.437
		c-0.458,0.732-0.604,1.601-0.41,2.442c0.344,1.496,1.68,2.511,3.154,2.511c0.239,0,0.482-0.026,0.726-0.082l1.784-0.411
		c0.842-0.193,1.559-0.704,2.017-1.437c0.384-0.613,0.534-1.32,0.464-2.028c2.145-1.162,3.987-2.509,5.231-3.51
		C46.815,38.286,50.024,34.114,50.024,29z"/>
</g>
</svg>